<svg id="SvgjsSvg1355" width="360" height="360" xmlns="http://www.w3.org/2000/svg" version="1.1" xmlns:xlink="http://www.w3.org/1999/xlink" xmlns:svgjs="http://svgjs.com/svgjs"><defs id="SvgjsDefs1356"></defs><g id="SvgjsG1357"><svg xmlns="http://www.w3.org/2000/svg" xmlns:xlink="http://www.w3.org/1999/xlink" data-name="Layer 1" viewBox="0 0 3600 1708.34" width="360" height="360"><defs><linearGradient id="a" x1="2191.56" x2="2191.56" y1="-248.89" y2="2160.19" gradientUnits="userSpaceOnUse"><stop offset="0" stop-color="#ffffff" class="stopColorfff svgShape"></stop><stop offset=".15" stop-color="#dfdfdf" class="stopColordfdfdf svgShape"></stop><stop offset=".47" stop-color="#9e579d" class="stopColor8f8f8f svgShape"></stop><stop offset=".94" stop-color="#101010" class="stopColor101010 svgShape"></stop><stop offset="1" stop-color="#000000" class="stopColor000000 svgShape"></stop></linearGradient><linearGradient id="t" x1="1928.09" x2="1928.09" y1="-195.92" y2="854.39" xlink:href="#a"></linearGradient><linearGradient id="b" x1="1132.25" x2="1132.25" y1="816.11" y2="377.13" gradientUnits="userSpaceOnUse"><stop offset="0" stop-color="#ffffff" class="stopColorfff svgShape"></stop><stop offset=".16" stop-color="#dfdfdf" class="stopColordfdfdf svgShape"></stop><stop offset=".52" stop-color="#9e579d" class="stopColor8f8f8f svgShape"></stop><stop offset="1" stop-color="#1a1a1a" class="stopColor1a1a1a svgShape"></stop></linearGradient><linearGradient id="k" x1="1473.08" x2="1473.08" y1="793.61" y2="354.63" xlink:href="#b"></linearGradient><linearGradient id="n" x1="1360.83" x2="1360.83" y1="798.11" y2="359.13" xlink:href="#b"></linearGradient><linearGradient id="q" x1="1958.72" x2="2436.42" y1="1798.99" y2="905.41" xlink:href="#a"></linearGradient><linearGradient id="d" x1="2191.56" x2="2191.56" y1="-248.89" y2="2160.19" gradientUnits="userSpaceOnUse"><stop offset="0" stop-color="#c2aab2" class="stopColoracaac2 svgShape"></stop><stop offset=".41" stop-color="#cbaab5" class="stopColorcbaab7 svgShape"></stop><stop offset="1" stop-color="#ffa6c5" class="stopColorffa9a6 svgShape"></stop></linearGradient><linearGradient id="c" x1="1132.25" x2="1132.25" y1="640.45" y2="201.46" gradientUnits="userSpaceOnUse"><stop offset="0" stop-color="#292e3b" class="stopColor292b3b svgShape"></stop><stop offset="1" stop-color="#292e3b" class="stopColor292b3b svgShape"></stop></linearGradient><linearGradient id="x" x1="1473.08" x2="1473.08" y1="617.95" y2="178.97" xlink:href="#c"></linearGradient><linearGradient id="z" x1="1360.83" x2="1360.83" y1="622.45" y2="183.47" xlink:href="#c"></linearGradient><linearGradient id="B" x1="1958.72" x2="2436.42" y1="1798.99" y2="905.41" xlink:href="#d"></linearGradient><linearGradient id="D" x1="1928.09" x2="1928.09" y1="-195.92" y2="854.39" gradientUnits="userSpaceOnUse"><stop offset="0" stop-color="#ffa6c5" class="stopColorffa9a6 svgShape"></stop><stop offset="1" stop-color="#ffa6c5" class="stopColorffa9a6 svgShape"></stop></linearGradient><filter id="e" width="1779.1" height="947.7" x="1302.01" y="603.41" color-interpolation-filters="sRGB" filterUnits="userSpaceOnUse"><feFlood flood-color="#fff" result="bg"></feFlood><feBlend in="SourceGraphic" in2="bg"></feBlend></filter><filter id="g" width="88.72" height="249.2" x="1087.9" y="555.41" color-interpolation-filters="sRGB" filterUnits="userSpaceOnUse"><feFlood flood-color="#fff" result="bg"></feFlood><feBlend in="SourceGraphic" in2="bg"></feBlend></filter><filter id="i" width="111.48" height="402.4" x="1417.34" y="402.21" color-interpolation-filters="sRGB" filterUnits="userSpaceOnUse"><feFlood flood-color="#fff" result="bg"></feFlood><feBlend in="SourceGraphic" in2="bg"></feBlend></filter><filter id="l" width="133.11" height="237.85" x="1294.28" y="580.76" color-interpolation-filters="sRGB" filterUnits="userSpaceOnUse"><feFlood flood-color="#fff" result="bg"></feFlood><feBlend in="SourceGraphic" in2="bg"></feBlend></filter><filter id="o" width="703.04" height="187.01" x="1652.14" y="1534.05" color-interpolation-filters="sRGB" filterUnits="userSpaceOnUse"><feFlood flood-color="#fff" result="bg"></feFlood><feBlend in="SourceGraphic" in2="bg"></feBlend></filter><filter id="r" width="348.32" height="413.18" x="1753.93" y="175.66" color-interpolation-filters="sRGB" filterUnits="userSpaceOnUse"><feFlood flood-color="#fff" result="bg"></feFlood><feBlend in="SourceGraphic" in2="bg"></feBlend></filter><mask id="u" width="1779.1" height="947.7" x="1302.01" y="427.75" maskUnits="userSpaceOnUse"><g filter="url(#e)" fill="#000000" class="color000 svgShape"><g mask="url(#f)" transform="translate(0 -175.66)" fill="#000000" class="color000 svgShape"><path d="M1575.82 1551.11h1505.29c-3.67-200.34-169.56-364-370.71-364-11.57 0-23 .57-34.32 1.63C2637.28 1025.43 2490.5 904 2315.34 904a373.9 373.9 0 0 0-51.43 3.57c-76.51-178.82-254-304.12-460.85-304.12-276.72 0-501 224.33-501 501-.06 194.91 111.25 363.82 273.76 446.66Z" style="mix-blend-mode:multiply" fill="url(#a)"></path></g></g></mask><mask id="v" width="88.72" height="249.2" x="1087.9" y="379.74" maskUnits="userSpaceOnUse"><g filter="url(#g)" fill="#000000" class="color000 svgShape"><g mask="url(#h)" transform="translate(0 -175.66)" fill="#000000" class="color000 svgShape"><path style="mix-blend-mode:multiply" fill="url(#b)" d="m1176.61 606.11-44.35-50.7-44.36 50.7h26.61v198.5H1150v-198.5h26.61z"></path></g></g></mask><mask id="w" width="111.48" height="402.4" x="1417.34" y="226.55" maskUnits="userSpaceOnUse"><g filter="url(#i)" fill="#000000" class="color000 svgShape"><g mask="url(#j)" transform="translate(0 -175.66)" fill="#000000" class="color000 svgShape"><path style="mix-blend-mode:multiply" fill="url(#k)" d="m1528.82 465.93-55.74-63.72-55.74 63.72h28.82v338.68H1500V465.93h28.82z"></path></g></g></mask><mask id="y" width="133.11" height="237.85" x="1294.28" y="405.1" maskUnits="userSpaceOnUse"><g filter="url(#l)" fill="#000000" class="color000 svgShape"><g mask="url(#m)" transform="translate(0 -175.66)" fill="#000000" class="color000 svgShape"><path style="mix-blend-mode:multiply" fill="url(#n)" d="m1427.39 656.84-66.56-76.08-66.55 76.08h37.97v161.77h57.17V656.84h37.97z"></path></g></g></mask><mask id="A" width="703.04" height="187.01" x="1652.14" y="1358.39" maskUnits="userSpaceOnUse"><g filter="url(#o)" fill="#000000" class="color000 svgShape"><g mask="url(#p)" transform="translate(0 -175.66)" fill="#000000" class="color000 svgShape"><path d="M2169.67 1581.2a192 192 0 0 0-92.23 23.46 257 257 0 0 0-177.24-70.61c-117.85 0-217.24 79-248.06 187h703a193 193 0 0 0-185.47-139.85Z" style="mix-blend-mode:multiply" fill="url(#q)"></path></g></g></mask><mask id="C" width="348.32" height="413.18" x="1753.93" y="0" maskUnits="userSpaceOnUse"><g filter="url(#r)" fill="#000000" class="color000 svgShape"><g mask="url(#s)" transform="translate(0 -175.66)" fill="#000000" class="color000 svgShape"><path d="M2102.25 349.82a174.17 174.17 0 0 0-182.41-174c-89.9 4.15-162.56 77.61-165.8 167.54a173.66 173.66 0 0 0 58.79 136.94c23 20.29 35.6 49.86 35.6 80.51v4.62a23.37 23.37 0 0 0 23.38 23.37h112.58a23.37 23.37 0 0 0 23.37-23.37v-4.64a108.94 108.94 0 0 1 36.4-81.2 173.62 173.62 0 0 0 58.09-129.77Z" style="mix-blend-mode:multiply" fill="url(#t)"></path></g></g></mask></defs><path fill="#ffbf66" d="M2703.84 604.85C2695 425.35 2546.71 282.53 2365 282.53a338.38 338.38 0 0 0-253.56 113.9c-138.86-83.7-301.55-131.87-475.51-131.87-509.55 0-922.59 413-922.59 922.55v3.15a464.72 464.72 0 0 0-77.52-6.51c-255.69 0-463 207.3-463 463A460.84 460.84 0 0 0 238.26 1884h2872.92c135.09-136.92 218.49-325 218.49-532.5 0-373.58-270.2-684.04-625.83-746.65Z" transform="translate(0 -175.66)" class="colore0cdb6 svgShape"></path><g mask="url(#u)" fill="#000000" class="color000 svgShape"><path fill="url(#d)" d="M1575.82 1551.11h1505.29c-3.67-200.34-169.56-364-370.71-364-11.57 0-23 .57-34.32 1.63C2637.28 1025.43 2490.5 904 2315.34 904a373.9 373.9 0 0 0-51.43 3.57c-76.51-178.82-254-304.12-460.85-304.12-276.72 0-501 224.33-501 501-.06 194.91 111.25 363.82 273.76 446.66Z" transform="translate(0 -175.66)"></path></g><path fill="#fc85ae" d="M2382.93 1133.32a182.68 182.68 0 0 0-175.6 132.38h351.21a182.68 182.68 0 0 0-175.61-132.38ZM2862 1133.32a182.68 182.68 0 0 0-175.6 132.38h351.21A182.68 182.68 0 0 0 2862 1133.32Z" transform="translate(0 -175.66)" class="colorff9c99 svgShape"></path><path fill="#fc85ae" d="M2633.76 1076.61c-119.17 0-219.67 79.93-250.83 189.1h501.66c-31.16-109.17-131.66-189.1-250.83-189.1Z" transform="translate(0 -175.66)" class="colorff9c99 svgShape"></path><path fill="none" stroke="#3d2f80" stroke-miterlimit="10" stroke-width="10.29" d="M922.29 1422s-35.21-266.39-191.51-482.1" transform="translate(0 -175.66)" class="colorStroke2f7d80 svgStroke"></path><path fill="#574b90" d="M708.72 882.17a209.78 209.78 0 0 1 31.37 70.9 200.73 200.73 0 0 1-87.27-124.63 209.78 209.78 0 0 1 55.9 53.73ZM789.66 914.65a209.78 209.78 0 0 1-28 72.3 200.73 200.73 0 0 1 26.51-149.82 209.78 209.78 0 0 1 1.49 77.52ZM684.29 996.85a209.78 209.78 0 0 1-76-15.48 200.73 200.73 0 0 1 152.15 1 209.78 209.78 0 0 1-76.15 14.48ZM722.37 1069.94a209.78 209.78 0 0 1-77.21 7.12 200.73 200.73 0 0 1 146-43 209.78 209.78 0 0 1-68.79 35.88ZM759.07 1142.58a209.78 209.78 0 0 1-77.53.27 200.73 200.73 0 0 1 149.18-29.91 209.78 209.78 0 0 1-71.65 29.64ZM788.95 1214.34a209.78 209.78 0 0 1-77.49-2.52 200.74 200.74 0 0 1 150.16-24.51 209.78 209.78 0 0 1-72.67 27.03ZM814.54 1302.49a209.78 209.78 0 0 1-77.21 7.12 200.74 200.74 0 0 1 146-43 209.78 209.78 0 0 1-68.79 35.88ZM845.29 983.37a209.78 209.78 0 0 1-53.29 56.35A200.73 200.73 0 0 1 873.21 911a209.78 209.78 0 0 1-27.92 72.37Z" transform="translate(0 -175.66)" class="color2f7d80 svgShape"></path><path fill="#574b90" d="M931 1158a209.78 209.78 0 0 1-71.35 30.33 200.73 200.73 0 0 1 125.89-85.45A209.78 209.78 0 0 1 931 1158ZM961.83 1256.36a209.78 209.78 0 0 1-76.67 11.53 200.74 200.74 0 0 1 143.26-51.25 209.78 209.78 0 0 1-66.59 39.72ZM891.05 1069.07a209.78 209.78 0 0 1-61.23 47.57 200.73 200.73 0 0 1 99.86-114.8 209.78 209.78 0 0 1-38.63 67.23Z" transform="translate(0 -175.66)" class="color2f7d80 svgShape"></path><path fill="none" stroke="#3d2f80" stroke-miterlimit="10" stroke-width="7.25" d="M790.1 1409.91S690.78 1248.76 528.19 1155" transform="translate(0 -175.66)" class="colorStroke2f7d80 svgStroke"></path><path fill="#574b90" d="M497.37 1124.24A147.79 147.79 0 0 1 538 1160.8a141.42 141.42 0 0 1-92-55 147.79 147.79 0 0 1 51.37 18.44ZM558.77 1121.83a147.79 147.79 0 0 1 2.81 54.55 141.42 141.42 0 0 1-26.08-104 147.79 147.79 0 0 1 23.27 49.45ZM514.67 1205a147.79 147.79 0 0 1-53.31 11.91 141.42 141.42 0 0 1 98.13-43.14 147.79 147.79 0 0 1-44.82 31.23ZM560.2 1241.06a147.79 147.79 0 0 1-47.6 26.8 141.42 141.42 0 0 1 81.49-69.64 147.79 147.79 0 0 1-33.89 42.84ZM604.7 1277.2a147.79 147.79 0 0 1-49.78 22.49 141.42 141.42 0 0 1 87.32-62.17 147.79 147.79 0 0 1-37.54 39.68ZM644.57 1314.74a147.79 147.79 0 0 1-50.57 20.68 141.42 141.42 0 0 1 89.5-59 147.79 147.79 0 0 1-38.93 38.32ZM686.4 1364.06a147.79 147.79 0 0 1-47.6 26.8 141.42 141.42 0 0 1 81.49-69.64 147.79 147.79 0 0 1-33.89 42.84ZM614.32 1150a147.79 147.79 0 0 1-18 51.56 141.42 141.42 0 0 1 15.16-106.11 147.79 147.79 0 0 1 2.84 54.55Z" transform="translate(0 -175.66)" class="color2f7d80 svgShape"></path><path fill="#574b90" d="M719.66 1237.61a147.79 147.79 0 0 1-37.15 40 141.42 141.42 0 0 1 56.35-91.18 147.79 147.79 0 0 1-19.2 51.18ZM767.84 1292a147.79 147.79 0 0 1-46 29.48 141.42 141.42 0 0 1 77.37-74.19 147.79 147.79 0 0 1-31.37 44.71ZM668.41 1191.94a147.79 147.79 0 0 1-25.68 48.21 141.42 141.42 0 0 1 31.17-102.55 147.79 147.79 0 0 1-5.49 54.34Z" transform="translate(0 -175.66)" class="color2f7d80 svgShape"></path><path fill="none" stroke="#3d2f80" stroke-miterlimit="10" stroke-width="7.25" d="M2895.8 1415.75s26.54-187.43 138-338.38" transform="translate(0 -175.66)" class="colorStroke2f7d80 svgStroke"></path><path fill="#574b90" d="M3049.77 1036.82a147.79 147.79 0 0 0-22.56 49.75 141.42 141.42 0 0 0 62.29-87.23 147.79 147.79 0 0 0-39.73 37.48ZM2992.53 1059.17a147.79 147.79 0 0 0 19.26 51.12 141.42 141.42 0 0 0-17.7-105.72 147.79 147.79 0 0 0-1.56 54.6ZM3066.23 1117.77a147.79 147.79 0 0 0 53.62-10.41 141.42 141.42 0 0 0-107.19-.27 147.79 147.79 0 0 0 53.57 10.68ZM3038.93 1169a147.79 147.79 0 0 0 54.34 5.52 141.42 141.42 0 0 0-102.54-31.22 147.79 147.79 0 0 0 48.2 25.7ZM3012.61 1219.94a147.79 147.79 0 0 0 54.62.7 141.42 141.42 0 0 0-104.9-22 147.79 147.79 0 0 0 50.28 21.3ZM2991.09 1270.3a147.79 147.79 0 0 0 54.61-1.27 141.42 141.42 0 0 0-105.63-18.24 147.79 147.79 0 0 0 51.02 19.51ZM2972.48 1332.24a147.79 147.79 0 0 0 54.34 5.52 141.42 141.42 0 0 0-102.54-31.22 147.79 147.79 0 0 0 48.2 25.7ZM2952.9 1107.22a147.79 147.79 0 0 0 37.15 40 141.42 141.42 0 0 0-56.35-91.18 147.79 147.79 0 0 0 19.2 51.18Z" transform="translate(0 -175.66)" class="color2f7d80 svgShape"></path><path fill="#574b90" d="M2891.41 1229.66a147.79 147.79 0 0 0 50.07 21.83 141.42 141.42 0 0 0-88.13-61 147.79 147.79 0 0 0 38.06 39.17ZM2869 1298.78a147.79 147.79 0 0 0 53.94 8.62 141.42 141.42 0 0 0-100.59-37 147.79 147.79 0 0 0 46.65 28.38ZM2920.1 1167.3a147.79 147.79 0 0 0 42.82 33.91 141.42 141.42 0 0 0-69.6-81.52 147.79 147.79 0 0 0 26.78 47.61Z" transform="translate(0 -175.66)" class="color2f7d80 svgShape"></path><rect width="1788.37" height="112.18" x="905.82" y="1380.29" fill="#615c78" rx="32.38" ry="32.38" class="color786b5c svgShape"></rect><path fill="#ffffff" d="M312.81 744.47H0V547.53a278.48 278.48 0 0 1 46.44-3.87A275.93 275.93 0 0 1 155.1 565.8a277.66 277.66 0 0 1 157.71 178.67ZM773.16 543.65c-126.56 0-233.29 84.88-266.38 200.82h532.76c-33.09-115.94-139.82-200.82-266.38-200.82Z" transform="translate(0 -175.66)" class="colorfff svgShape"></path><path fill="#ffffff" d="M426.94 457.62c-180.78 0-333.23 121.24-380.49 286.85h761c-47.28-165.61-199.74-286.85-380.51-286.85Z" transform="translate(0 -175.66)" class="colorfff svgShape"></path><path fill="#c4a1ad" d="M667.52 1374.57c-114.31 0-210.7 76.66-240.59 181.37h481.18c-29.88-104.71-126.28-181.37-240.59-181.37ZM1323.88 1374.57c-114.31 0-210.7 76.66-240.59 181.37h481.18c-29.88-104.71-126.28-181.37-240.59-181.37Z" transform="translate(0 -175.66)" class="colorc4b4a1 svgShape"></path><path fill="#c4a1ad" d="M1011.18 1296.87c-163.27 0-301 109.5-343.65 259.07h687.31c-42.7-149.56-180.39-259.07-343.66-259.07Z" transform="translate(0 -175.66)" class="colorc4b4a1 svgShape"></path><path fill="#fc85ae" d="M330.63 701.42A97.36 97.36 0 0 0 237 772h187.22a97.36 97.36 0 0 0-93.59-70.58ZM586 701.42A97.36 97.36 0 0 0 492.37 772h187.18A97.36 97.36 0 0 0 586 701.42Z" transform="translate(0 -175.66)" class="colorff9c99 svgShape"></path><path fill="#fc85ae" d="M464.31 671.2A139.07 139.07 0 0 0 330.63 772H598a139.07 139.07 0 0 0-133.69-100.8Z" transform="translate(0 -175.66)" class="colorff9c99 svgShape"></path><path fill="#c2aab2" d="M817.9 217.49a105.92 105.92 0 0 0-101.82 76.76h203.64a105.92 105.92 0 0 0-101.82-76.76ZM1095.67 217.49a105.92 105.92 0 0 0-101.82 76.76h203.63a105.92 105.92 0 0 0-101.81-76.76Z" transform="translate(0 -175.66)" class="coloracaac2 svgShape"></path><path fill="#c2aab2" d="M963.34 184.61A151.29 151.29 0 0 0 817.9 294.25h290.86a151.29 151.29 0 0 0-145.42-109.64Z" transform="translate(0 -175.66)" class="coloracaac2 svgShape"></path><path fill="#ffffff" d="M2731.67 295c-130.14 0-239.9 87.28-273.92 206.5h547.85C2971.57 382.3 2861.82 295 2731.67 295ZM3600 308.16V501.5h-359.72A285.17 285.17 0 0 1 3600 308.16Z" transform="translate(0 -175.66)" class="colorfff svgShape"></path><path fill="#ffffff" d="M3122.94 206.55c-185.89 0-342.66 124.68-391.27 295h782.54c-48.6-170.33-205.37-295-391.27-295Z" transform="translate(0 -175.66)" class="colorfff svgShape"></path><path fill="#c2aab2" d="M2955 474.8a129 129 0 0 0-124 93.48h248a129 129 0 0 0-124-93.48ZM3293.27 474.8a129 129 0 0 0-124 93.48h248a129 129 0 0 0-124-93.48Z" transform="translate(0 -175.66)" class="coloracaac2 svgShape"></path><path fill="#c2aab2" d="M3132.11 434.76A184.25 184.25 0 0 0 2955 568.28h354.23a184.25 184.25 0 0 0-177.12-133.52ZM2505.39 1412c-93.23 0-171.86 62.53-196.23 147.94h392.46c-24.37-85.41-103-147.94-196.23-147.94ZM3040.74 1412c-93.23 0-171.86 62.53-196.23 147.94H3237c-24.4-85.41-103-147.94-196.26-147.94Z" transform="translate(0 -175.66)" class="coloracaac2 svgShape"></path><path fill="#c2aab2" d="M2785.69 1348.62c-133.17 0-245.48 89.32-280.3 211.31H3066c-34.84-121.99-147.14-211.31-280.31-211.31Z" transform="translate(0 -175.66)" class="coloracaac2 svgShape"></path><path fill="#303a52" d="m929.23 1110.79 38.53-87.2c33.46 19.77 78.08 32.45 117.12 32.45 34 0 46.14-7.1 46.14-19.27 0-44.62-196.22-8.62-196.22-140.95 0-65.91 55.27-119.66 165.29-119.66 47.66 0 96.84 10.14 133.85 30.93l-36 86.7c-35-17.75-67.94-26.37-98.87-26.37-35 0-46.14 10.14-46.14 22.31 0 42.59 196.22 7.1 196.22 137.91 0 64.9-55.27 119.66-165.29 119.66-59.31 0-119.14-14.7-154.63-36.51ZM1356.64 877.06H1252.7v-92.78h327.53v92.79h-103.94v262.13h-119.65ZM1835.25 1077.33h-134.87l-23.83 61.86h-121.68L1710 784.28h117.63l155.15 354.91h-123.7Zm-33-86.19-34.48-89.23-34.48 89.23ZM2154.15 1050h-32.45v89.23H2002V784.28h170.87c98.87 0 161.74 51.72 161.74 133.85 0 51.21-24.34 89.74-66.93 111.54l74.53 109.52h-127.73Zm11.15-173.4h-43.6v83.15h43.6c33 0 48.67-15.72 48.67-41.57s-15.71-41.62-48.67-41.62ZM2451.76 877.06h-103.94v-92.78h327.54v92.79h-103.95v262.13h-119.65Z" transform="translate(0 -175.66)" class="color292b3b svgShape"></path><path fill="#303a52" d="M1189.01 1029.05h203.66v203.66h-203.66z" class="color292b3b svgShape"></path><path fill="#ffffff" d="M1392.67 1029.05h203.66v203.66h-203.66z" class="colorfff svgShape"></path><path fill="#303a52" d="M1596.34 1029.05H1800v203.66h-203.66z" class="color292b3b svgShape"></path><path fill="#ffffff" d="M1800 1029.05h203.66v203.66H1800z" class="colorfff svgShape"></path><path fill="#303a52" d="M2003.66 1029.05h203.66v203.66h-203.66z" class="color292b3b svgShape"></path><path fill="#ffffff" d="M2207.33 1029.05h203.66v203.66h-203.66zM1189.01 1232.71h203.66v203.66h-203.66z" class="colorfff svgShape"></path><path fill="#303a52" d="M1392.67 1232.71h203.66v203.66h-203.66z" class="color292b3b svgShape"></path><path fill="#ffffff" d="M1596.34 1232.71H1800v203.66h-203.66z" class="colorfff svgShape"></path><path fill="#303a52" d="M1800 1232.71h203.66v203.66H1800z" class="color292b3b svgShape"></path><path fill="#ffffff" d="M2003.66 1232.71h203.66v203.66h-203.66z" class="colorfff svgShape"></path><path fill="#303a52" d="M2207.33 1232.71h203.66v203.66h-203.66z" class="color292b3b svgShape"></path><g mask="url(#v)" fill="#000000" class="color000 svgShape"><path fill="url(#c)" d="m1176.61 430.45-44.35-50.7-44.36 50.7h26.61v198.5H1150v-198.5h26.61z"></path></g><g mask="url(#w)" fill="#000000" class="color000 svgShape"><path fill="url(#x)" d="m1528.82 290.26-55.74-63.71-55.74 63.71h28.82v338.69H1500V290.26h28.82z"></path></g><g mask="url(#y)" fill="#000000" class="color000 svgShape"><path fill="url(#z)" d="m1427.39 481.18-66.56-76.08-66.55 76.08h37.97v161.77h57.17V481.18h37.97z"></path></g><g mask="url(#A)" fill="#000000" class="color000 svgShape"><path fill="url(#B)" d="M2169.67 1581.2a192 192 0 0 0-92.23 23.46 257 257 0 0 0-177.24-70.61c-117.85 0-217.24 79-248.06 187h703a193 193 0 0 0-185.47-139.85Z" transform="translate(0 -175.66)"></path></g><circle cx="1901.83" cy="1190.95" r="45.83" fill="#ff528e" class="colorff5752 svgShape"></circle><path fill="#ff7daa" d="M1817.89 1368.33a83.94 83.94 0 0 1 167.89 0c0 46.36-83.94 143.94-83.94 143.94s-83.95-97.58-83.95-143.94Z" transform="translate(0 -175.66)" class="colorff817d svgShape"></path><circle cx="1901.83" cy="1190.95" r="45.83" fill="#ff528e" class="colorff5752 svgShape"></circle><g mask="url(#C)" fill="#000000" class="color000 svgShape"><path fill="url(#D)" d="M2102.25 349.82a174.17 174.17 0 0 0-182.41-174c-89.9 4.15-162.56 77.61-165.8 167.54a173.66 173.66 0 0 0 58.79 136.94c23 20.29 35.6 49.86 35.6 80.51v4.62a23.37 23.37 0 0 0 23.38 23.37h112.58a23.37 23.37 0 0 0 23.37-23.37v-4.64a108.94 108.94 0 0 1 36.4-81.2 173.62 173.62 0 0 0 58.09-129.77Z" transform="translate(0 -175.66)"></path></g><path fill="none" stroke="#2358de" stroke-miterlimit="10" stroke-width="4.41" d="M1928.09 362.49c-23.53.07-55.89-16.91-57.36-44.12-2-37.85 51.48-35.3 40.21 7.14-13.21 49.73-71.09 20.07-71.09 20.07M2016.34 345.58s-57.89 29.66-71.09-20.07c-11.27-42.43 42.25-45 40.21-7.14-1.47 27.21-33.83 44.19-57.36 44.12" transform="translate(0 -175.66)" class="colorStroke292b3b svgStroke"></path><path fill="none" stroke="#2358de" stroke-miterlimit="10" stroke-width="4.41" d="M1843.24 347.14s63.69 99.77 68.19 241.7M2012.94 347.14s-63.69 99.77-68.19 241.7" transform="translate(0 -175.66)" class="colorStroke292b3b svgStroke"></path><path fill="none" stroke="#2358de" stroke-miterlimit="10" stroke-width="4.41" d="M1928.09 186.83v226.35" class="colorStroke292b3b svgStroke"></path><path fill="#fadbe6" d="M1893 412.08h70.19a1.24 1.24 0 0 1 1.24 1.24v99.07a17.94 17.94 0 0 1-17.94 17.94h-36.8a17.94 17.94 0 0 1-17.94-17.94v-99.07a1.24 1.24 0 0 1 1.25-1.24Z" class="colordedbfa svgShape"></path><path fill="#ffffff" d="M1866.68 412.08h122.82a1.5 1.5 0 0 1 1.5 1.5v76.12a21.62 21.62 0 0 1-21.62 21.62h-82.58a21.62 21.62 0 0 1-21.62-21.62v-76.12a1.5 1.5 0 0 1 1.5-1.5Z" class="colorfff svgShape"></path><rect width="148.33" height="18.5" x="1853.93" y="475.83" fill="#fadbe6" rx="5.34" ry="5.34" class="colordedbfa svgShape"></rect><rect width="148.33" height="18.5" x="1853.93" y="449.12" fill="#fadbe6" rx="5.34" ry="5.34" class="colordedbfa svgShape"></rect><rect width="148.33" height="18.5" x="1853.93" y="422.42" fill="#fadbe6" rx="5.34" ry="5.34" class="colordedbfa svgShape"></rect><path fill="#d9bec7" d="M2440.48 1630.58a6.2 6.2 0 0 0 6.07-7.43l-8.88-43.63a6.19 6.19 0 1 0-12.13 2.47l8.88 43.63a6.19 6.19 0 0 0 6.06 4.96Z" transform="translate(0 -175.66)" class="colorc0bed9 svgShape"></path><path fill="#ff7daa" d="M2448.22 1622.35s3.83 15.92 0 16.36-59 2.12-59.33-.44c-1.11-8.74 44-16.8 48.42-15.92s10.41-2.35 10.91 0Z" transform="translate(0 -175.66)" class="colorff817d svgShape"></path><path fill="#d9bec7" d="M2230.58 1574.58a6.2 6.2 0 0 0 6.07-7.43l-8.88-43.63a6.19 6.19 0 0 0-12.13 2.47l8.88 43.63a6.19 6.19 0 0 0 6.06 4.96Z" transform="translate(0 -175.66)" class="colorc0bed9 svgShape"></path><path fill="#fe6398" d="M2216 1552.34c6.54-1.7 12.93-3.77 19.27-6.1-35.14-122.26-44.43-224.2 101.25-271-6.3-16.91-12.28-34-18.45-50.91-147.85 72.92-141.93 191.29-102.07 328.01Z" transform="translate(0 -175.66)" class="colorfe6563 svgShape"></path><path fill="#fe6398" d="M2427.55 1602.24a203.08 203.08 0 0 0 19.44-6.62c-49.09-95.93-85-246.92-76.43-356.14-17.85-.92-35.73-1.52-53.59-2 6.69 109.27 68.11 266.24 110.58 364.76Z" transform="translate(0 -175.66)" class="colorfe6563 svgShape"></path><path fill="#ff7daa" d="M2238.32 1566.35s3.83 15.92 0 16.36-59 2.12-59.33-.44c-1.11-8.74 44-16.8 48.42-15.92s10.41-2.35 10.91 0Z" transform="translate(0 -175.66)" class="colorff817d svgShape"></path><path fill="#e092ad" d="M2300.66 1233.56c11.63 3.89 7.13 24.54 32.14 31.15a196.48 196.48 0 0 0 41.9 6.56c1.94-47.48.29-97.16 3.75-143.72.75-9.79 1.24-15.63-.58-23-2.45-9.88-7.6-16.69-14.27-20.3-8.17-4.48-18.63-4.13-29.2 1.27a23.7 23.7 0 0 0-4.59 2.77c-6.27 4.79-12 14.15-13 31.8-2.3 44.11-7.81 67.67-16.15 113.47Z" transform="translate(0 -175.66)" class="color92dde0 svgShape"></path><path fill="#ffffff" d="M2387.57 1253.62s-31.7 10.91-34.53 18.86 28.51 1 41.55-14.52Z" transform="translate(0 -175.66)" class="colorfff svgShape"></path><path fill="#e092ad" d="M2385.17 1250.73c2.93 4.79 6 9.52 8.88 14 80.11-63 75.06-101-11.78-167.67-13.28-10.2-13.88-7.78-20.3 2.28-2.41-.8-2.37-.91 0 0-6.43 10.05-1.39 12.93 9.08 20.94 68.5 52.34 83.44 80.66 14.12 130.45Z" transform="translate(0 -175.66)" class="color92dde0 svgShape"></path><path fill="#ffffff" d="M2239.79 948.51s10-32 17.82-35.08 1.84 28.46-13.27 42Z" transform="translate(0 -175.66)" class="colorfff svgShape"></path><path fill="#e092ad" d="M2234 944.31c6.12.22 12.19 1.11 18.58 1.83-6.65 74.24-34.95 112.49 71 142.78 16.2 4.63 14.93 8 8.72 18.57 1.75 1.87 1.81 1.82 0 0-6.21 10.6-9.3 9.31-24 2.51-96.14-44.5-86.38-73.87-74.3-165.69Z" transform="translate(0 -175.66)" class="color92dde0 svgShape"></path><path fill="#ffffff" d="M2361.35 1055.51c-10.21 15.7-29.43 21.32-39 15.07s-5.94-22 4.28-37.68 23.19-18.63 32.78-12.39 12.16 19.3 1.94 35Z" transform="translate(0 -175.66)" class="colorfff svgShape"></path><path fill="#ffffff" d="M2364.91 1065.52c-2.38 3.65-9 6-11.69 4.25s-1.38-5.11 1-8.77 6.75-5.68 9.39-4 3.68 4.86 1.3 8.52Z" transform="translate(0 -175.66)" class="colorfff svgShape"></path><path fill="#ffffff" d="m2359.08 1052.91-19.58-1.91c-.26 2.68-2.32 28.21-1.32 37.83.72 3 5.6 4.32 10.9 3 4.77-1.16 8.22-4.06 8.35-6.78-.56-5.74.74-22.77 1.65-32.14Z" transform="translate(0 -175.66)" class="colorfff svgShape"></path><path fill="#303a52" d="M2351.79 1060.89c-2.89-3.12-5.6-.31-12.55 3.59s-19.36 2.89-20.23-13.36c-.55-10.36-6.39 6.57-6.4 6.59-1.17 8.49 1.12 13.63 6.82 17.34 7.86 5.11 20.4 4.39 31.51-2.25 1.78-4.17 2.82-9.8.85-11.91Z" transform="translate(0 -175.66)" class="color292b3b svgShape"></path><path fill="#303a52" d="m2318.48 1050.51.66.36c3.42 1.85 18.93 10.56 20.51 17 1.77 7.22-8.34-2.79-11.4-7.41s-6.76-4-10.08-5-4.84-5.14.31-4.95ZM2370.14 1047s3.22-12.22-2.28-21-21.08-18-33.41-6.2c0 0-8 9.17 3.89 17.88s13.34.71 16.09 10.47 11 8.17 11.34 10.27Z" transform="translate(0 -175.66)" class="color292b3b svgShape"></path><path fill="#574b90" d="m2318.89 1024.41 4.81 25.52 16.16-24.44 6.86-103.12h-6.85l-20.98 102.04z" class="color2f7d80 svgShape"></path><path fill="none" stroke="#ffffff" stroke-linecap="round" stroke-linejoin="round" stroke-width="6" d="M1927.42 553.85v206.2M1897.25 568.85v79.5M1958.92 574.85v126" class="colorStrokefff svgStroke"></path><path fill="none" stroke="#ffffff" stroke-miterlimit="10" stroke-width="6" d="M2252.04 749.87V465.54" class="colorStrokefff svgStroke"></path><path fill="#ff8066" d="M2243.77 695.2c19.9 0 30.81-4.06 39.57-7.32 7.3-2.72 12.58-4.68 24.92-4.68s17.62 2 24.92 4.68c8.76 3.26 19.67 7.32 39.57 7.32s30.81-4.06 39.57-7.32c7.3-2.72 12.58-4.68 24.92-4.68s17.63 2 24.93 4.68c8.76 3.26 19.67 7.32 39.58 7.32s30.81-4.06 39.58-7.32c7.31-2.72 12.58-4.68 24.93-4.68l-10.5-20.39 10.5-21.61c-19.91 0-30.81 4.06-39.58 7.32-7.31 2.72-12.58 4.68-24.93 4.68s-17.63-2-24.93-4.68c-8.76-3.26-19.67-7.32-39.58-7.32s-30.81 4.06-39.57 7.32c-7.3 2.72-12.58 4.68-24.92 4.68s-17.62-2-24.92-4.68c-8.76-3.26-19.67-7.32-39.57-7.32s-30.81 4.06-39.57 7.32c-7.3 2.72-12.58 4.68-24.92 4.68Z" transform="translate(0 -175.66)" class="colorff8c87 svgShape"></path><circle cx="2252.04" cy="749.87" r="7.5" fill="#ffffff" class="colorfff svgShape"></circle><circle cx="2252.04" cy="465.27" r="5.44" fill="#ffffff" class="colorfff svgShape"></circle><path fill="#ffffff" d="M1622.21 521.54a29.93 29.93 0 0 0 29.93-29.93 29.93 29.93 0 0 0 29.93 29.93 29.93 29.93 0 0 0-29.93 29.93 29.93 29.93 0 0 0-29.93-29.93ZM1078.79 1232.07a29.93 29.93 0 0 0 29.93-29.93 29.93 29.93 0 0 0 29.93 29.93 29.93 29.93 0 0 0-29.93 29.93 29.93 29.93 0 0 0-29.93-29.93ZM2801.08 991.14a29.93 29.93 0 0 0 29.92-29.93 29.93 29.93 0 0 0 29.93 29.93 29.93 29.93 0 0 0-29.93 29.93 29.93 29.93 0 0 0-29.92-29.93ZM1652.14 1017.47a29.93 29.93 0 0 0 29.93-29.93 29.93 29.93 0 0 0 29.93 29.93 29.93 29.93 0 0 0-29.93 29.93 29.93 29.93 0 0 0-29.93-29.93ZM1579.64 434.76a16.7 16.7 0 0 0 16.7-16.7 16.7 16.7 0 0 0 16.7 16.7 16.7 16.7 0 0 0-16.7 16.7 16.7 16.7 0 0 0-16.7-16.7ZM2769 876.56a16.7 16.7 0 0 0 16.7-16.7 16.7 16.7 0 0 0 16.7 16.7 16.7 16.7 0 0 0-16.7 16.7 16.7 16.7 0 0 0-16.7-16.7ZM1596.34 1073.09a16.7 16.7 0 0 0 16.7-16.7 16.7 16.7 0 0 0 16.7 16.7 16.7 16.7 0 0 0-16.7 16.7 16.7 16.7 0 0 0-16.7-16.7ZM1399.76 828.44a16.7 16.7 0 0 0 16.7-16.7 16.7 16.7 0 0 0 16.7 16.7 16.7 16.7 0 0 0-16.7 16.7 16.7 16.7 0 0 0-16.7-16.7ZM636.12 1495.19a16.7 16.7 0 0 0 16.7-16.7 16.7 16.7 0 0 0 16.7 16.7 16.7 16.7 0 0 0-16.7 16.7 16.7 16.7 0 0 0-16.7-16.7Z" transform="translate(0 -175.66)" class="colorfff svgShape"></path></svg></g></svg>